<svg xmlns="http://www.w3.org/2000/svg" viewBox="0 0 24 24" fill="currentColor">
  <path d="M12 .297c-6.63 0-12 5.373-12 12 0 5.303 3.438 9.8 8.205 11.387.6.113.82-.258.82-.577 0-.285-.01-1.04-.015-2.04-3.338.724-4.042-1.61-4.042-1.61-.546-1.387-1.333-1.757-1.333-1.757-1.09-.744.083-.729.083-.729 1.205.085 1.84 1.237 1.84 1.237 1.07 1.835 2.807 1.304 3.492.997.108-.775.418-1.304.76-1.604-2.665-.304-5.467-1.332-5.467-5.93 0-1.31.47-2.38 1.236-3.22-.124-.303-.536-1.524.117-3.176 0 0 1.008-.322 3.301 1.23a11.5 11.5 0 0 1 3.003-.404c1.018.005 2.045.138 3.003.404 2.293-1.552 3.3-1.23 3.3-1.23.655 1.652.243 2.873.12 3.176.77.84 1.235 1.91 1.235 3.22 0 4.61-2.807 5.625-5.479 5.922.43.372.823 1.102.823 2.222 0 1.604-.015 2.896-.015 3.286 0 .319.216.694.825.576C20.565 22.092 24 17.592 24 12.297c0-6.627-5.373-12-12-12"/>
</svg>
